<svg xmlns="http://www.w3.org/2000/svg" viewBox="0 0 800 300">
  <!-- Power Logo -->
  <g fill="#0052FF">
    <!-- Power Button -->
    <path d="M170,150 a80,80 0 1,1 0,0.1 M170,110 v80 M170,110 a40,40 0 1,1 0,0.1" stroke="#0052FF" stroke-width="25" fill="none"/>
    
    <!-- Squares -->
    <rect x="60" y="90" width="20" height="20"/>
    <rect x="90" y="90" width="20" height="20"/>
    <rect x="120" y="90" width="20" height="20"/>
    <rect x="60" y="120" width="20" height="20"/>
    <rect x="60" y="150" width="20" height="20"/>
    <rect x="60" y="180" width="20" height="20"/>
    <rect x="90" y="180" width="20" height="20"/>
    <rect x="120" y="180" width="20" height="20"/>
    <rect x="230" y="90" width="20" height="20"/>
    <rect x="260" y="90" width="20" height="20"/>
    <rect x="290" y="90" width="20" height="20"/>
    <rect x="290" y="120" width="20" height="20"/>
    <rect x="290" y="150" width="20" height="20"/>
    <rect x="290" y="180" width="20" height="20"/>
    <rect x="260" y="180" width="20" height="20"/>
    <rect x="230" y="180" width="20" height="20"/>
  </g>
  
  <!-- Text "ADTS" -->
  <text x="370" y="140" font-family="Arial" font-size="100" font-weight="bold" fill="#0052FF">ADTS</text>
  
  <!-- Text "Tailoring Your IT Requirements" -->
  <text x="370" y="200" font-family="Arial" font-size="40" fill="#0052FF">Tailoring Your IT Requirements</text>
</svg>